<?xml version="1.0" encoding="utf-8"?>
<!-- Generator: Adobe Illustrator 26.1.0, SVG Export Plug-In . SVG Version: 6.00 Build 0)  -->
<svg version="1.1" id="Layer_1" xmlns="http://www.w3.org/2000/svg" xmlns:xlink="http://www.w3.org/1999/xlink" x="0px" y="0px"
	 viewBox="0 0 100 100" style="enable-background:new 0 0 100 100;" xml:space="preserve">
<style type="text/css">
	.st0{fill:#2E1A76;}
	.st1{fill:url(#SVGID_1_);}
	.st2{fill:#FDAF1B;}
	.st3{fill:url(#SVGID_00000032620608113736016140000010904212267871654834_);}
	.st4{fill:#6D0767;}
	.st5{fill:#C08D24;}
	.st6{fill:#24044E;}
	.st7{fill:#AA2A5E;}
	.st8{fill:#FF9363;}
	.st9{fill:#8F28C5;}
	.st10{fill:#FEFEFE;}
	.st11{fill:#F61823;}
	.st12{fill:#E7650D;}
	.st13{fill:#EF9219;}
	.st14{fill:#DE83CC;}
	.st15{fill:#A577BD;}
	.st16{fill:#DC0732;}
	.st17{fill:url(#SVGID_00000152948779733053378590000000481797300515589811_);}
	.st18{fill:url(#SVGID_00000041986813276681401280000007395375352365659016_);}
	.st19{fill:#3E0654;}
	.st20{fill:#CBACD8;}
	.st21{fill:#FC5935;}
	.st22{fill:url(#SVGID_00000034781713260860616400000017641210639406979461_);}
	.st23{fill:url(#SVGID_00000175315758486487802340000007112169715096477864_);}
	.st24{fill:url(#SVGID_00000078725379472792857080000001936601403600588980_);}
	.st25{fill:#E8D2DD;}
	.st26{fill:#7D1C95;}
	.st27{fill:#FDD647;}
	.st28{fill:url(#SVGID_00000005268972022577040670000010070261633924320158_);}
	.st29{fill:url(#SVGID_00000018205774837655168690000002217509221678750882_);}
	.st30{fill:#F95F6F;}
	.st31{fill:#2F2EA4;}
	.st32{fill:#FDF1CC;}
</style>
<path class="st0" d="M26.6,85.7l0.8,0.7c2.8,2.6,6.1,4.8,9.7,6.2c4.1,1.6,8.7,2.3,13.1,2.2c4.4-0.2,8.8-1.4,12.7-3.4
	c0.9-0.5,1.7-0.9,2.6-1.5c0.7-0.4,4.3-3.3,4.3-3.3c0.1,0,0.6,0.3,0.7,0.3c0.2,0.1,0.8,0.3,0.9,0.4l-0.1,0.2l-0.1,0.1
	c-0.3,0.2-0.5,0.5-0.8,0.8L68.9,90c-2.5,2.3-5.3,4.1-8.4,5.5c-1.7,0.8-3.4,1.3-5.2,1.8c-0.1,0-2.9,0.6-3,0.6c-0.2,0-1.6,0.1-2.1,0.2
	c-1.1,0.1-2.3,0.1-3.4,0c-5.1-0.3-10-1.8-14.4-4.6c0,0-1.9-1.4-1.9-1.4c-0.5-0.4-1-0.8-1.5-1.3c-1.3-1.2-2.6-2.4-3.7-3.9
	c-0.2-0.3-0.4-0.6-0.6-0.9c0,0,1-0.2,1.1-0.2C26,85.8,26.3,85.8,26.6,85.7z"/>
<linearGradient id="SVGID_1_" gradientUnits="userSpaceOnUse" x1="85.1631" y1="-138.0621" x2="63.4159" y2="-127.3126" gradientTransform="matrix(0.3896 0 0 -0.3896 -11.9019 27.4526)">
	<stop  offset="0" style="stop-color:#F89C14"/>
	<stop  offset="1" style="stop-color:#FFFA79"/>
</linearGradient>
<path class="st1" d="M10.4,83.2l5.8-15.9c0.4,0.3,0.7,0.6,1.2,0.7l0.2-0.2l0.5,2.4l-0.7,2.1c-0.1,0.2-0.2,0.5-0.2,0.7
	c0.5,2.8,1.9,5.5,3.4,7.9l0,0c0.2,0.3,0.5,0.7,0.6,1.1l-2,0.5l-6.7,1.9l-0.8,1.8l-0.1,0c-0.7,0.3-1.5,0.4-2.2,0.7
	c-0.1,0-0.1,0.1-0.2,0L10.4,83.2z"/>
<path class="st2" d="M17,72.9c0.5,2.8,1.9,5.5,3.4,7.9L18,81.4c-0.6,0.2-1.3,0.3-1.9,0.5l-2.5,0.7c0.4-0.7,0.6-1.6,0.8-2.4l1.7-4.7
	C16.4,74.6,16.7,73.7,17,72.9z"/>
<linearGradient id="SVGID_00000100382563987054278680000012925823936503508653_" gradientUnits="userSpaceOnUse" x1="59.0025" y1="-125.0852" x2="70.7277" y2="-131.8621" gradientTransform="matrix(0.3896 0 0 -0.3896 -11.9019 27.4526)">
	<stop  offset="0" style="stop-color:#CD0F55"/>
	<stop  offset="1" style="stop-color:#B6006B"/>
</linearGradient>
<path style="fill:url(#SVGID_00000100382563987054278680000012925823936503508653_);" d="M10.4,83.2l5.8-15.9
	c0.4,0.3,0.7,0.6,1.2,0.7l-6,16.6c0.4,0,0.8-0.2,1.1-0.2l-0.8,1.8l-0.1,0c-0.7,0.3-1.5,0.4-2.2,0.7c-0.1,0-0.1,0.1-0.2,0L10.4,83.2z
	"/>
<path class="st4" d="M22.1,80.2l0.7,1.2l0.9,1.3l-12.1,3.5l0.8-1.8l6.7-1.9l2-0.5c-0.1-0.4-0.4-0.8-0.6-1.1
	C20.9,80.5,21.6,80.3,22.1,80.2z"/>
<path class="st5" d="M22.1,80.2l0.7,1.2l-1.7,0.5c-0.1-0.4-0.4-0.8-0.6-1.1C20.9,80.5,21.6,80.3,22.1,80.2z"/>
<path class="st6" d="M48.9,0.8C48.8,0.8,58.5,22.2,71,41.6c0.6,0.9,4.1-6.4,5-7.1c2.1-1.6,6.2-1.9,7.5,2.2c0.9,3-0.8,5.5-2,8.1
	c-1.1,2.2-2.2,4.4-3.1,6.7c-0.1,0.3-0.8,1.3-0.6,1.7c2.5,6.5,5,13.1,7.4,19.7c1.4,3.8,2.8,7.7,4.1,11.5c0.1,0.2,0.1,0.3,0.2,0.5
	c-0.4,0.5-0.7,1.1-1.1,1.6c-0.2,0.3-0.4,1-0.8,1.1c-2.1-0.6-4.3-1.3-6.4-2c-1.1-0.3-2.2-0.6-3.3-0.9c-0.7-0.2-1.5-0.6-2.3-0.6
	c-0.9,0-1.3,0.7-1.8,1.2c-0.7,0.8-1.6,1.4-2.3,2.2c0.1-0.1-0.1-0.3-0.2-0.3c-0.6-0.2-1.3-0.6-1.8-0.1c-5.3,4.4-11.9,7.4-18.8,7.7
	c-0.1,0-0.2,0-0.3,0c-4.4,0.2-9-0.5-13.1-2.2c-3.6-1.4-6.8-3.6-9.7-6.2l-0.8-0.7l-1.7,0.8l-0.3-0.4l-1-1.4c0,0-1.3-1.7-1.3-1.7
	c0.8-0.2,1.2-0.4,1.3-0.4c0.2,0,0.1,0.1,0,0c-1.5-2.2-1.1-1.7-1.5-2.5c-0.1-0.1-1.5,0.5-1.6,0.6l0,0c-1.5-2.4-2.9-5.1-3.4-7.9
	c0-0.2,0.2-0.5,0.2-0.7l0.7-2.1l-0.5-2.4c0,0-0.2,0.2-0.2,0.2c-0.1,0.1-0.6-0.2-0.7-0.3c-0.3-0.2-0.4-0.3-0.4-0.6
	c0.1-0.8,1-1.7,0.4-2.3c-0.4-0.5-0.9-0.9-1.3-1.3c-0.7-0.7-1.4-1.4-2.2-2.1c-1-0.9-2.1-1.8-2.9-2.9c-0.4-0.6-0.7-1.2-0.8-1.9
	c-0.1-1.7,0.3-3.2,1.4-4.5c1.1-1.3,2.7-2.1,4.4-2.2c1.5-0.1,3.2,0.3,4.5,1.2c0.6,0.4,1.2,1.1,1.8,1.3c1-1.5,1.8-3.1,2.7-4.8
	c0.8-1.5,1.9-3,2.4-4.6c0.1-0.4,0.2-0.8,0.2-1.2c0.1-1.3,0.4-2.6,0.4-4l0.1-2.3l0-16.4c0-2.8,1.6-5.3,4.1-6.5l0.2-0.1
	c1.2-0.6,2.7-0.7,3.9-0.1c4.3,2.1,2.2,10.1,2.4,15.3C38,28.2,48.9,0.7,48.9,0.8z"/>
<path class="st7" d="M71,43.6c-0.5,1.1-1,2.3-1.7,3.3c0.1-0.6,0.3-1.2,0.5-1.8l0.8-2.4C70.8,43,70.9,43.3,71,43.6z"/>
<path class="st2" d="M79.3,70l0.3-2c0-0.4,0-0.8,0.1-1.1l0.4,0.9l0.1,0.4c-0.4,0.6-0.2,2.9-0.3,3.7l0,0.1l0,0
	C79.8,71.3,79.6,70.4,79.3,70z"/>
<path class="st7" d="M17,65c0.1,0.1,0.2,0.2,0.3,0.3c0.1,0.1,0.1,0.4,0.1,0.6c0.1,0.5,0.2,1.2,0.2,1.7l0,0.1l-0.2,0.2
	c-0.5-0.1-0.8-0.3-1.2-0.7l0-0.1c0.2-0.2,0.3-0.6,0.4-0.9L17,65z"/>
<path class="st8" d="M61.2,39.5c0.2-0.6,0.6-1.2,1.2-1.5c0.5-0.3,1.1-0.3,1.7-0.2c0.6,0.1,1.2,0.2,1.8,0.4c1,0.2,1.8,0.4,2.5,1.2
	l0,0.1c-0.2,0-0.6-0.2-0.8-0.2L65.9,39c-0.7-0.1-1.5-0.4-2.2-0.4C62.6,38.5,62,38.7,61.2,39.5z"/>
<path class="st8" d="M51.2,35.5c0.1-0.3,0.3-0.7,0.5-1c0.4-0.5,1.1-0.9,1.8-1c0.7,0,1.4,0.2,2.1,0.3c1.2,0.3,2.8,0.6,3.8,1.4l-0.1,0
	c-0.8-0.1-1.7-0.2-2.5-0.4c-1.1-0.2-2.3-0.7-3.4-0.6c-0.6,0-1.3,0.3-1.7,0.7L51.2,35.5z"/>
<path class="st9" d="M26.1,50.6c0.1,0.8,0,1.6-0.1,2.4L26,56.3c-0.6-0.5-1.2-1.3-1.9-1.7c0.2-0.5,0.5-1,0.7-1.5L26.1,50.6z"/>
<path class="st8" d="M40.9,32.4c0.3-0.6,0.8-1.1,1.3-1.5c0.8-0.6,2-1,3-0.8c0.5,0.1,1,0.2,1.5,0.4c1.3,0.3,2.2,0.6,3,1.7
	c-1-0.5-2.1-0.7-3.2-1c-0.5-0.1-1.1-0.3-1.6-0.3c-0.7,0-1.4,0.1-2,0.4C42.1,31.6,41.5,32,40.9,32.4z"/>
<path class="st5" d="M75.3,80l2.1,0.5l-0.7,1.4l0,0l-2.2-0.6L75.3,80z"/>
<path class="st10" d="M22.8,53.5l2.6-4.9c0.3-0.6,0.7-1.4,1.1-1.9l-0.2,2.4c0,0.5,0,1.1-0.2,1.6l-1.3,2.5c-0.3,0.5-0.5,1-0.7,1.5
	L22.8,53.5z"/>
<path class="st11" d="M23,67.8l2.8-4.5l-0.1,6.4c0.1,1.2,0.4,2.4,0.8,3.6l-3.9-4.7L23,67.8z"/>
<path class="st4" d="M21.5,52.3l5.1-9.4c0,0.8,0,1.5,0,2.3c0,0.4,0,1-0.1,1.4c-0.4,0.6-0.7,1.3-1.1,1.9l-2.6,4.9L21.5,52.3z"/>
<path class="st12" d="M79.3,70c0.3,0.4,0.5,1.3,0.6,1.8c-0.2,1.5-0.5,3-0.9,4.5c-0.4,1.4-0.9,2.9-1.5,4.1l0,0L75.3,80l1.4-2.6
	C77.9,75.1,78.7,72.6,79.3,70z"/>
<path class="st13" d="M18,70.1c0.8,3.6,2.2,6.9,4.1,10.1c-0.5,0.2-1.2,0.3-1.6,0.6l0,0c-1.5-2.4-2.9-5.1-3.4-7.9
	c0-0.2,0.2-0.5,0.2-0.7L18,70.1z"/>
<path class="st10" d="M11.3,54.6c0.4-1.2,1.1-2,2.2-2.6c1.2-0.6,2.7-0.7,4-0.3c0.6,0.2,1.2,0.5,1.8,0.9c0.7,0.5,1.3,1.1,1.9,1.6
	l4.7,4.2l0,0.9c-0.3-0.4-0.7-0.7-1-0.9L22,56.2c-0.9-0.7-1.8-1.5-2.8-2.1c-1.2-0.8-2.7-1.2-4.1-0.9c-0.8,0.1-1.6,0.4-2.3,0.8
	C12.3,54.1,11.8,54.5,11.3,54.6L11.3,54.6z"/>
<path class="st14" d="M80,36c0.7,0.3,1.3,1,1.6,1.6c0.3,0.7,0.4,1.4,0.3,2.1l0,0.1c-0.1,0.7-0.5,1.3-0.8,1.9l-1.7,3.4l-5.9,11.7
	c-0.2-0.6-0.5-1.1-1-1.6c0.1-0.1,0.1-0.2,0.2-0.3l0.4-0.8c0.1-0.1,0.2-0.3,0.3-0.4l1.6-3.1l1.8-3.4l1.6-3.4l1.7-3.3
	c0.3-0.5,0.7-1.1,0.8-1.7c0.1-0.7-0.1-1.5-0.5-2.1C80.2,36.5,80,36.3,80,36L80,36z"/>
<path class="st15" d="M35.1,15c0.3,0.2,1,0.8,1.2,1.2c0.4,0.5,0.6,1.2,0.7,1.8c0.1,0.9,0,1.8,0,2.6l0,4.4l-0.1,14.1l-1.9,0.1
	l0.7-19.8l0-2.5l0,0c-0.1-0.7-0.3-1.2-0.9-1.6l-0.1-0.1l0.1,0l0.2,0.1l0.1,0L35.1,15z"/>
<path class="st16" d="M61.2,39.5c0.8-0.7,1.4-1,2.5-0.9c0.7,0,1.5,0.3,2.2,0.4l1.6,0.3c0.2,0,0.6,0.2,0.8,0.2
	c0.5,0.6,0.9,1.5,0.8,2.3c-0.1,0.8-0.5,1.7-0.7,2.4l-1.3,4.4l-0.5-0.1c-0.2-0.2-0.7-0.3-1-0.4l-2.6-0.6l-3.9-0.9l1.2-4.5
	C60.6,41.1,60.9,40.2,61.2,39.5z"/>
<linearGradient id="SVGID_00000128448570912362771590000014113202975100605368_" gradientUnits="userSpaceOnUse" x1="198.9688" y1="-46.1689" x2="192.2697" y2="-30.154" gradientTransform="matrix(0.3896 0 0 -0.3896 -11.9019 27.4526)">
	<stop  offset="0" style="stop-color:#FE0C2D"/>
	<stop  offset="1" style="stop-color:#FFA541"/>
</linearGradient>
<path style="fill:url(#SVGID_00000128448570912362771590000014113202975100605368_);" d="M62.2,45.1c-0.2-0.1-0.4-0.4-0.6-0.6l0-0.1
	c-0.4-0.7-0.2-1.3-0.1-2c0.2-1,0.5-2.7,1.4-3.2c0.7-0.4,2.1,0.1,2.9,0.3c0.6,0.2,1.1,0.4,1.3,0.9c0.4,0.7,0,1.8-0.2,2.5
	c-0.1,0.8-0.4,2-1.2,2.4c-0.1,0.1-0.2,0.1-0.3,0.2l-0.3,0.2c-0.3,0.1-0.8,0-1.1,0C63.4,45.6,62.7,45.5,62.2,45.1z"/>
<linearGradient id="SVGID_00000116950841534575110470000006626479819022733245_" gradientUnits="userSpaceOnUse" x1="231.0382" y1="-51.2069" x2="214.9882" y2="-38.9932" gradientTransform="matrix(0.3896 0 0 -0.3896 -11.9019 27.4526)">
	<stop  offset="0" style="stop-color:#C7BED6"/>
	<stop  offset="1" style="stop-color:#FFFFFF"/>
</linearGradient>
<path style="fill:url(#SVGID_00000116950841534575110470000006626479819022733245_);" d="M68.5,52.9l-0.1-0.1l1.3-3
	c0.6-1.3,1.3-2.6,1.9-3.9l2.9-5.8l1-2c0.2-0.4,0.4-0.9,0.7-1.3c0.3-0.5,0.8-0.8,1.4-1c0.9-0.3,1.6-0.2,2.4,0.1l0,0.1
	c0,0.2,0.3,0.4,0.4,0.6c0.4,0.6,0.6,1.4,0.5,2.1c-0.1,0.6-0.5,1.2-0.8,1.7l-1.7,3.3l-1.6,3.4l-1.8,3.4l-1.6,3.1
	c-0.1,0.1-0.2,0.3-0.3,0.4l-0.4,0.8c-0.1,0.1-0.1,0.2-0.2,0.3C71.3,54.1,70,53.5,68.5,52.9z"/>
<path class="st6" d="M77.8,41.6L77.8,41.6c0.2,0,0.4,0,0.5,0.1c0.1,0.1,0.2,0.2,0.2,0.4c0,0.2-0.1,0.3-0.3,0.4
	c-0.2,0.1-0.3,0-0.5-0.1c-0.1-0.2-0.2-0.3-0.1-0.5C77.5,41.8,77.6,41.7,77.8,41.6z"/>
<path class="st19" d="M72.4,48.1c0.1,0,0.2-0.1,0.3-0.1c0.2,0,0.3,0.1,0.5,0.2c0.1,0.1,0.2,0.4,0.2,0.6c0,0.2-0.2,0.3-0.3,0.5
	c-0.1,0-0.3,0.1-0.4,0.1c-0.2,0-0.3-0.1-0.4-0.3c-0.1-0.2-0.2-0.4-0.1-0.6C72.1,48.3,72.3,48.2,72.4,48.1z"/>
<path class="st20" d="M68.5,52.9L68.5,52.9c0.2-0.1,0.2-0.2,0.3-0.3c0.2-0.3,0.5-0.5,0.9-0.6c0.9-0.1,1.7,0.1,2.4,0.7
	c0.3,0.3,0.5,0.5,0.6,0.9h-0.1l0,0c-0.1,0.1-0.1,0.3,0,0.4c0,0.1,0.1,0.2,0.2,0.2c0.1,0,0.2-0.2,0.3-0.3l-0.4,0.8
	c-0.1,0.1-0.1,0.2-0.2,0.3C71.3,54.1,70,53.5,68.5,52.9z"/>
<path class="st16" d="M51.2,35.5l0.5-0.5c0.5-0.4,1.1-0.7,1.7-0.7c1.1-0.1,2.4,0.4,3.4,0.6c0.8,0.2,1.7,0.3,2.5,0.4l0.1,0l0.3,0.3
	c0.6,0.6,0.8,1.5,0.8,2.2c-0.1,0.7-0.4,1.5-0.5,2.2l-1.2,4.3c-0.2,0.6-0.4,1.2-0.5,1.9l-9.4-2.3l1.4-5.4
	C50.5,37.6,50.7,36.4,51.2,35.5z"/>
<path class="st21" d="M51.6,39.7c0.1-0.7,0.3-1.3,0.5-1.9c0.1-0.5,0.2-1,0.4-1.4c0.2-0.5,0.6-0.8,1-1c0.8-0.3,1.8-0.1,2.6,0.2
	c0.4,0.1,0.7,0.2,1,0.3l0.1,0l0.2,0.1c0.3,0.2,0.8,0.6,0.9,1c0.4,0.8-0.3,2.6-0.5,3.4c0,0.2-0.1,0.3-0.2,0.5
	c-0.1,0.2-0.1,0.4-0.2,0.6L57.2,42c0,0.1-0.1,0.2-0.2,0.3l-0.1,0.1l-0.1,0.2l0,0.1c-0.1,0.2-0.2,0.2-0.4,0.3L56.2,43
	c-0.4,0.2-0.8,0.2-1.2,0.2l-0.1-0.1l-0.1,0c-0.2,0-0.2,0-0.4-0.1l-0.2,0L54,43c-0.1,0-0.1,0-0.2,0c-0.1,0,0,0-0.1,0
	c-0.4,0-1.2-0.2-1.6-0.5c-0.4-0.3-0.7-0.9-0.7-1.4C51.3,40.6,51.4,40.1,51.6,39.7z"/>
<path class="st16" d="M40.9,32.4c0.7-0.4,1.2-0.8,1.9-1.1c0.6-0.2,1.4-0.4,2-0.4c0.5,0,1.1,0.2,1.6,0.3c1.1,0.3,2.2,0.5,3.2,1
	c0.3,0.4,0.7,1.1,0.7,1.6c0,0.5-0.2,1-0.3,1.5l-0.5,2l-1.6,6.3l-9.6-2.4C38.6,40.2,40.5,32.7,40.9,32.4z"/>
<linearGradient id="SVGID_00000019669444289170457110000000023432366566950532_" gradientUnits="userSpaceOnUse" x1="151.0891" y1="-32.275" x2="138.804" y2="-13.9216" gradientTransform="matrix(0.3896 0 0 -0.3896 -11.9019 27.4526)">
	<stop  offset="0" style="stop-color:#FD012C"/>
	<stop  offset="1" style="stop-color:#F9A843"/>
</linearGradient>
<path style="fill:url(#SVGID_00000019669444289170457110000000023432366566950532_);" d="M40.9,38.8c-0.1-0.9,0.3-2,0.5-2.9
	c0.2-0.8,0.3-1.8,0.7-2.6c0.3-0.5,0.8-1,1.4-1.1c0.7-0.2,1.6,0,2.3,0.2c0.5,0.1,1,0.2,1.5,0.5c0.6,0.3,0.8,0.8,1,1.4
	c0.1,1-0.9,5.2-1.5,6c-0.4,0.4-0.9,0.7-1.4,0.7c-0.9,0-2.9-0.3-3.6-1C41.3,39.6,41.1,39.2,40.9,38.8z"/>
<linearGradient id="SVGID_00000103236274267008128540000014373189718696165252_" gradientUnits="userSpaceOnUse" x1="77.2712" y1="-101.4695" x2="78.2895" y2="-66.1672" gradientTransform="matrix(0.3896 0 0 -0.3896 -11.9019 27.4526)">
	<stop  offset="0" style="stop-color:#B5A6D1"/>
	<stop  offset="1" style="stop-color:#E9E4E7"/>
</linearGradient>
<path style="fill:url(#SVGID_00000103236274267008128540000014373189718696165252_);" d="M11.3,54.6L11.3,54.6
	c0.5-0.1,1-0.5,1.4-0.7c0.7-0.3,1.5-0.6,2.3-0.8c1.4-0.2,2.9,0.2,4.1,0.9c1,0.6,1.9,1.4,2.8,2.1l2.9,2.2c0.3,0.3,0.8,0.6,1,0.9
	l-0.1,1.4c0,0.2,0,0.5,0,0.7c0,0.1-0.3,0.4-0.4,0.5l-1.3,1.9l-2.3,3.4L18,63.5l-3.9-3.7l-1.7-1.6c-0.4-0.4-0.8-0.7-1.1-1.2
	C11.1,56.3,11,55.3,11.3,54.6z"/>
<path class="st6" d="M23.1,60c-0.2,0.7-0.7,1.5-1.2,2.1c-0.7,0.8-1.4,1.2-2.5,1.3l0,0c0-0.1,0.1-0.1,0.2-0.2
	C21,62.4,22.1,61.3,23.1,60z"/>
<path class="st10" d="M30.1,39.3L28.7,39l0.1-6.8l0.1-7.3l0-4.3c0-0.9,0-1.7,0.1-2.6c0.1-0.5,0.3-1,0.5-1.4c0.5-1,1.4-1.8,2.5-2.1
	c1-0.3,2.1-0.1,3,0.4l-0.3,0.5l-0.2-0.1l-0.1,0l0.1,0.1c0.5,0.5,0.7,0.9,0.9,1.6l0,0l0,2.5l-0.7,19.8L30.1,39.3z"/>
<linearGradient id="SVGID_00000031180114264279579580000017312396390666062233_" gradientUnits="userSpaceOnUse" x1="115.4099" y1="-30.2526" x2="114.4759" y2="7.9253" gradientTransform="matrix(0.3896 0 0 -0.3896 -11.9019 27.4526)">
	<stop  offset="0" style="stop-color:#C2A3CF"/>
	<stop  offset="1" style="stop-color:#E7E4E5"/>
</linearGradient>
<path style="fill:url(#SVGID_00000031180114264279579580000017312396390666062233_);" d="M33.2,21.3c0.4,0.3,0.5,0.7-0.2,0.8
	c-0.1,0-2.3,0.1-2.2,0c-0.1,0.8-0.1,1.6-0.1,2.4c0-0.3,1.4,0,1.5,0c0.6,0,1.1-0.2,1.6-0.2c0.6,0,0.5,0.1,1.1,0.2
	c0.1,0,0.3,0.1,0.4,0.1c0.1,0,0.2-4.5,0.2-4.9c0.2,1.3,0,2.9,0,4.2c0,1.5-0.1,3-0.1,4.6c-0.1,3.5,1.4,9-0.5,10.8
	c-1.7,0.2-3.5,0-4.7,0.1c0,0,0.2-7.9,0.2-7.9c-0.1-0.1-0.1-0.1-0.2-0.2c0-0.2,0-0.3,0.2-0.4c0.1-0.4,0.1-0.8,0.1-1.2
	c0,0,0.1-2.8,0.1-2.8c0-1,0.1-2.1,0.1-3.1c0-0.6-0.3-1.7,0.1-2.2c0.4-0.6,1.7-0.6,2.4-0.3C33.1,21.2,33.2,21.2,33.2,21.3z"/>
<path class="st6" d="M30.3,30.8c0.4-0.1,0.9-0.2,1.3,0c0.2,0.2,0.2,0.2,0.2,0.4c-0.1,0.2-0.2,0.3-0.4,0.4c-0.3,0.1-0.7,0-1-0.1
	c-0.1-0.1-0.1-0.1-0.2-0.2C30.2,31.1,30.2,31,30.3,30.8z"/>
<path class="st6" d="M30.7,21.5c0-0.1,0-0.2,0.1-0.2c0.6-0.2,1.8-0.2,2.5,0c0.2,0.2,0.2,0.2,0.2,0.4c-0.1,0.1-0.1,0.3-0.3,0.3
	c-0.2,0-0.5,0-0.8,0l-1.5,0C30.7,21.8,30.7,21.7,30.7,21.5z"/>
<path class="st25" d="M75.5,56.5L75.5,56.5c0.2-0.7,0.5-1.3,0.9-1.9c2.7,6.5,2.4,13.7-0.3,20.2c-3.1,7.4-8.8,13.1-16.2,16.2
	c-7.1,2.9-15.6,2.9-22.7-0.1c-7.3-3.1-13-8.9-16-16.3c-1-2.4-1.6-4.8-2-7.4l1.3,1.4c0.3,0.3,0.6,0.6,0.8,0.9
	c0.6,0.5,1.1,1.3,1.7,1.9l2.9,3.5c0.4,0.4,1,0.9,1.2,1.4c1.8,4.3,5,8,9.4,9.7l2.4,0.7l5.7,0.9l3.7,0.6c2.5,0.4,5,0.2,7.5-0.4
	c5.1-1.2,9.4-5,11.7-9.6c0.9-1.8,1.4-3.7,2.1-5.6l4-10.9l0.7-2C74.6,58.6,74.8,57.6,75.5,56.5L75.5,56.5z"/>
<path class="st9" d="M59.7,89.2c0.2-0.4,0.8-0.7,1.1-1c0.9-0.9,1.9-1.8,2.8-2.8c1.5-1.7,2.6-3.3,3.7-5.3c1.5-2.8,2.5-5.9,3.5-8.9
	l2.9-7.4c0.7-1.7,1.4-3.5,2.3-5c0-0.1,0.1-0.1,0.2-0.2c1.5,6.6,0.1,13.9-3.5,19.5c-2.5,4-6,7.3-10.1,9.7
	C61.7,88.4,60.7,88.9,59.7,89.2z"/>
<path class="st26" d="M75.5,56.5l0.6,2.2c-0.1,0.1-0.1,0.1-0.2,0.2c-0.9,1.5-1.6,3.4-2.3,5l-2.9,7.4c-1.1,3-2.1,6.1-3.5,8.9
	c-1,2-2.2,3.6-3.7,5.3c-0.9,1-1.8,1.9-2.8,2.8c-0.3,0.3-0.9,0.7-1.1,1c-1.2,0.7-2.6,1.1-4,1.4c-5,1.3-10.3,1.2-15.2-0.3
	c-0.9-0.3-1.9-0.6-2.8-1c-0.2,0-0.5-0.2-0.7-0.3c-0.9-0.4-1.8-0.9-2.7-1.4c-3.9-2.3-7.4-5.8-9.7-9.7c-1.5-2.6-2.6-5.4-3.4-8.3
	c0.6,0.5,1.1,1.3,1.7,1.9l2.9,3.5c0.4,0.4,1,0.9,1.2,1.4c1.8,4.3,5,8,9.4,9.7l2.4,0.7l5.7,0.9l3.7,0.6c2.5,0.4,5,0.2,7.5-0.4
	c5.1-1.2,9.4-5,11.7-9.6c0.9-1.8,1.4-3.7,2.1-5.6l4-10.9l0.7-2C74.6,58.6,74.8,57.6,75.5,56.5L75.5,56.5z"/>
<path class="st27" d="M80.3,68.1l0.6,1.6c0.3,0.9,2.7,7.5,2.9,7.7l2.7,7.2l-6.9-2l-1.8-0.5c-0.3-0.1-0.7-0.2-0.9-0.3l0.7-1.4l0,0
	c0.7-1.3,1.1-2.7,1.5-4.1c0.4-1.5,0.8-3,0.9-4.5l0,0l0-0.1C80.1,71,79.9,68.7,80.3,68.1z"/>
<path class="st13" d="M79.9,71.8L79.9,71.8L79.9,71.8l3.8,10.4L79,80.9c-0.4-0.1-1.1-0.4-1.5-0.4l0,0c0.7-1.3,1.1-2.7,1.5-4.1
	C79.4,74.8,79.7,73.4,79.9,71.8z"/>
<linearGradient id="SVGID_00000064335311030891840750000009683764212304401080_" gradientUnits="userSpaceOnUse" x1="138.4351" y1="-145.1618" x2="163.4974" y2="-45.2464" gradientTransform="matrix(0.3896 0 0 -0.3896 -11.9019 27.4526)">
	<stop  offset="0" style="stop-color:#F8D50C"/>
	<stop  offset="1" style="stop-color:#FA3551"/>
</linearGradient>
<path style="fill:url(#SVGID_00000064335311030891840750000009683764212304401080_);" d="M29.6,77.9c-0.1-0.1-0.2-0.4-0.3-0.5
	c-1-1.9-1.8-4.3-2-6.4c-0.1-1.1,0-2.3,0-3.4l0.3-7.7L28,45.8l0.1-3.7c0-0.8,0.1-1.7,0.3-2.5c0.2-0.1,0.4-0.1,0.6-0.1
	c0,0,8.3,0.5,8.3,0.5c-0.1,0-0.6,2.6-0.7,2.8c-0.1,0.5-0.8,1.8-0.3,2.3c0.1,0.1,0.2,0,0.3,0c0.7-0.5,0.9-2.2,1.1-3l26.2,6.3l2.2,0.5
	c0.1-0.1,0.1-0.2,0.2-0.4l0.2-0.4l0.5,0.1c0.3,0.1,0.5,0.1,0.7,0.3c0.3,0.1,0.6,0.4,0.7,0.7c0.1,0.3,0.1,0.5,0,0.8l-0.6,1.3
	c-0.2,0.5-0.4,1.1-0.8,1.6c0.5,0.3,1,0.4,1.6,0.6c1.2,0.3,2.4,0.8,3.2,1.7c0.5,0.5,0.8,1,0.9,1.7l0,0.1c0.2,0.6,0.2,1.4,0,2
	c-0.3,1-0.7,1.9-1.1,2.9l-2,5.3L67.8,73c-0.7,1.9-1.2,3.9-2.3,5.6c-2.4,3.9-6.1,6.8-10.5,7.9c-2.2,0.5-4.5,0.6-6.8,0.3L44.5,86
	c-1.9-0.3-3.8-0.5-5.7-0.9c-1.5-0.4-2.9-1-4.1-1.8c-1.6-1-3-2.4-4.1-3.9C30.2,78.9,29.8,78.4,29.6,77.9z"/>
<path class="st10" d="M30.3,44.2c0.2-0.3,0.3-0.6,0.7-0.8c0.3-0.1,0.5-0.1,0.8,0c0.2,0.1,0.4,0.3,0.4,0.5c0.1,0.4,0,0.9,0,1.3
	c0,0.9-0.1,1.7-0.1,2.6L32,51.5l-0.4,7.7l-0.2,5.2c-0.1,2.1-0.3,4.4,0.1,6.5c0.3,1.6,1.1,3.2,2.1,4.5c1.1,1.3,2.6,2.4,4.2,3.1
	c0.7,0.3,1.3,0.5,2,0.8c-0.4,0.5-0.8,0.8-1.4,0.9c-0.4,0.1-0.8,0-1.1,0l-0.1,0c-2.2-0.3-4.1-2.1-5.4-3.8c-1.1-1.6-1.9-3.3-2.3-5.3
	c-0.1-0.6-0.1-1.2-0.3-1.8L30.3,44.2z"/>
<path class="st12" d="M59.4,65.1l0,2.5c0,0.4,0.1,0.9,0,1.3c-0.1,0.4-0.3,0.8-0.6,1.1c-0.2,0.2-0.4,0.4-0.6,0.5L55.8,72l-4.6,2.9
	l-5.6,3.5c-0.6,0.4-1.2,0.8-1.8,1.1c-0.3,0.2-0.7,0.3-1.1,0.3l-0.1,0c-0.7,0.1-1.6-0.2-2.2-0.6l-0.1-0.1c-0.7-0.4-1.2-1.2-1.4-2
	c-0.1-0.7,0-1.6,0-2.3c0-0.4,0-1,0.1-1.4c0.4,0.7,0.8,1.2,1.4,1.6c0.7,0.5,1.6,0.7,2.5,0.5c0.3-0.1,0.6-0.2,0.9-0.4
	c0.7-0.4,1.3-0.8,1.9-1.2l3.9-2.4l6.4-3.9c0.8-0.5,1.6-0.9,2.3-1.5C58.8,66,59.1,65.6,59.4,65.1z"/>
<linearGradient id="SVGID_00000108277858546221443810000009853998072403097258_" gradientUnits="userSpaceOnUse" x1="169.5111" y1="-151.9833" x2="146.4811" y2="-23.9305" gradientTransform="matrix(0.3896 0 0 -0.3896 -11.9019 27.4526)">
	<stop  offset="0" style="stop-color:#FB640C"/>
	<stop  offset="1" style="stop-color:#DB003E"/>
</linearGradient>
<path style="fill:url(#SVGID_00000108277858546221443810000009853998072403097258_);" d="M29.6,77.9c-0.1-0.1-0.2-0.4-0.3-0.5
	c-1-1.9-1.8-4.3-2-6.4c-0.1-1.1,0-2.3,0-3.4l0.3-7.7c0,0,0.5-14.1,0.5-14.1c0.1-1.7,0.2-3.4,0.3-5.2c0-0.2,0.1-0.6,0.2-0.8
	c0.1-0.2,0.4-0.1,0.7-0.1c0,0,8.3,0.5,8.3,0.5c-0.1,0.4-0.2,0.7-0.3,1.1c-0.1,0.4-0.2,0.9-0.3,1.4c-0.1,0.5-0.3,0.9-0.4,1.3
	c-0.1,0.3-0.3,1.1,0,1.3c0.1,0.1,0.2,0,0.3,0c0.7-0.5,0.9-2.2,1.1-3l26.2,6.3l2.2,0.5c0.1-0.1,0.1-0.2,0.2-0.4l0.2-0.4l0.5,0.1
	c0.3,0.1,0.5,0.1,0.7,0.3c0.3,0.1,0.6,0.4,0.7,0.7c0.1,0.3,0.1,0.5,0,0.8l-0.6,1.3c-0.2,0.5-0.4,1.1-0.8,1.6
	c-0.4-0.3-0.8-0.4-1.2-0.5c-0.7-0.2-1.4-0.4-2-0.7c-0.7-0.3-1.2-0.7-1.6-1.3c-0.1-0.1-0.2-0.4-0.3-0.5c-0.1-0.1-0.6-0.2-0.8-0.2
	l-3.1-0.7L48,46.6L41.4,45c-0.9-0.2-1.9-0.5-2.8-0.7c-0.7,0.5-1,1.2-1.5,1.8c-0.2,0.3-0.7,0.9-1.1,0.9c-0.2,0-0.4-0.1-0.5-0.2
	c-0.1-0.2-0.1-0.4-0.1-0.6c0.2-0.6,0.2-1.3,0.3-1.9c0.2-0.9,0.2-1.8,0.2-2.7c0-0.1,0-0.3,0-0.4c0-0.1-0.1-0.1-0.1-0.2
	c0,0-0.2,0-0.2,0c-0.2-0.1-0.5-0.1-0.7-0.2c-0.3,0-0.6-0.1-0.8-0.1c-0.8-0.1-1.6-0.2-2.4-0.3c-0.4,0-1.3-0.2-1.6,0.1
	c-0.3,0.3-0.2,1-0.1,1.4c0,0.4,0.1,0.7,0.1,1.1c0.1,0.3,0.1,0.7,0.2,1c0,0,0,0.1,0,0.1l-1,25.1c-0.1,0.5-0.1,1-0.1,1.5
	c0,2,0.5,4,1.5,5.8c1.8,3.1,5,5.8,8.5,6.7c1.7,0.5,3.5,0.6,5.2,0.8c1.7,0.3,3.4,0.7,5,0.9c3.1,0.3,6.5-0.4,9.3-2
	c2.1-1.2,3.9-3.1,5.2-5.2c0.7-1.1,1.1-2.4,1.6-3.7l2-5.5l2.1-5.7c0.4-1,0.8-2,1.1-3l0-0.1c0.1-0.4,0.1-0.8,0.1-1.1
	c-0.1-0.5-0.4-1-0.8-1.3l-0.1-0.1c-0.3-0.2-0.5-0.3-0.8-0.4l-0.1,0L65.8,56c-0.8-0.2-1.8-0.4-2.5-0.7c-0.5-0.2-0.8-0.5-1.2-0.9
	c-0.3-0.4-0.7-0.9-0.6-1.4c0-0.1,0.1-0.1,0.1-0.2c0.8-0.1,1.9,0.3,2.6,0.5l5.7,1.5c0.6,0.1,1.2,0.5,1.7,0.9l0.2,0l0-0.2
	c0.5,0.5,0.8,1,0.9,1.7l0,0.1c0.2,0.6,0.2,1.4,0,2c-0.3,1-0.7,1.9-1.1,2.9l-2,5.3L67.8,73c-0.7,1.9-1.2,3.9-2.3,5.6
	c-2.4,3.9-6.1,6.8-10.5,7.9c-2.2,0.5-4.5,0.6-6.8,0.3L44.5,86c-1.9-0.3-3.8-0.5-5.7-0.9c-1.5-0.4-2.9-1-4.1-1.8
	c-1.6-1-3-2.4-4.1-3.9C30.2,78.9,29.8,78.4,29.6,77.9z"/>
<path class="st11" d="M35.4,46.2c0,0.1,0.1,0.3,0.1,0.4c0,0.2,0.1,0.3,0.3,0.4c0.2,0,0.4,0,0.6-0.1c0.1-0.1,0.1-0.1,0.2-0.2
	c0.1-0.1,0.1-0.1,0.2-0.2c0.1-0.1,0.1-0.2,0.2-0.2c0.1-0.1,0.1-0.1,0.2-0.2l0.6-0.8l0-0.1c0.1-0.1,0-0.1,0.1-0.2
	c0.1-0.1,0,0,0.1-0.2c0.1-0.2,0.3-0.2,0.4-0.3l0.1-0.1c0.2-0.1,0.2-0.1,0.4,0l0.2,0c0.2,0,0.3,0.1,0.5,0.1l1.2,0.3
	c0.1,0,0.3,0.1,0.4,0.1c0.3,0.1,0.7,0.1,1,0.2c0.1,0,0.1,0,0.2,0l0.1,0c0.1,0.1,0.2,0.1,0.3,0.1c0.1,0,0.2,0,0.2,0.1
	c0.2,0.1,0.4,0,0.5,0.1c0.1,0.1,0.2,0.1,0.3,0.1l0.2,0.1c0.1,0,0.1,0,0.2,0.1c0.2,0.1,0.5,0.1,0.8,0.2c0.1,0,0.2,0,0.3,0l0.1,0
	l0.1,0l0,0c0.1,0.1,0.2,0,0.3,0.1l0.2,0.1c0.4,0.1,0.9,0.3,1.4,0.3c0.1,0,0,0,0.2,0.1l0.2,0l0.6,0.1l0.7,0.2c0.1,0,0.2,0,0.3,0.1
	c0.1,0,0.2,0,0.2,0.1c0.1,0,0.3,0.1,0.4,0.1l0.1,0c0.2,0.1,0.4,0.1,0.7,0.2c0.1,0,0.2,0,0.4,0.1c0.2,0.1,0.5,0.1,0.8,0.2l0.2,0.1
	c0.6,0.2,1.3,0.3,1.9,0.5c0.1,0,0.1,0,0.2,0l0,0C53.9,48,54,48,54.1,48l0.5,0.1c0.1,0,0.1,0,0.2,0l0.1,0c0.1,0.1,0.3,0.1,0.4,0.1
	l0,0c0.1,0.1,0.2,0,0.3,0.1c0.2,0,0.3,0.1,0.5,0.1c0.1,0,0.1,0,0.2,0c0.2,0.1,0.4,0.1,0.6,0.1l0.4,0.1l1.2,0.3l0.4,0.1
	c0.1,0,0,0,0.1,0c0.1,0,0.2,0,0.2,0.1l0.3,0.1l0.2,0l0.8,0.2c0.1,0,0.1,0,0.2,0c0.1,0,0.2,0,0.3,0.1l0.1,0l1.2,0.3
	c0.1,0,0.2,0,0.3,0l0.3,0.1c0.1,0,0.3,0,0.4,0.1c0.2,0,0.3,0.1,0.5,0.1c0.2,0.1,0.4,0.1,0.6,0.1c0.1,0,0.2,0.1,0.3,0l0.1,0
	c0.1,0.1,0.3,0.1,0.4,0.1l0.1,0c0.2,0.1,0.3,0.1,0.6,0l0.3-0.7c0.1-0.1,0.1-0.2,0.1-0.3l0.1-0.3c0-0.1,0.1-0.2,0.1-0.3
	c-0.1-0.1-0.2-0.1-0.3-0.1l-0.1,0l-0.1,0c-0.2,0,0,0-0.2-0.1l-0.2,0l-0.1,0c-0.2,0-0.3-0.1-0.4-0.1l-0.1,0c-0.1,0-0.2,0-0.3-0.1
	c-0.1,0-0.2,0-0.3-0.1l0-0.1l2.2,0.5c0.1-0.1,0.1-0.2,0.2-0.4l0.2-0.4l0.5,0.1c0.3,0.1,0.5,0.1,0.7,0.3c0.3,0.1,0.6,0.4,0.7,0.7
	c0.1,0.3,0.1,0.5,0,0.8l-0.6,1.3c-0.2,0.5-0.4,1.1-0.8,1.6c-0.4-0.3-0.8-0.4-1.2-0.5c-0.7-0.2-1.4-0.4-2-0.7
	c-0.7-0.3-1.2-0.7-1.6-1.3c-0.1-0.1-0.2-0.4-0.3-0.5c-0.1-0.1-0.6-0.2-0.8-0.2l-3.1-0.7L48,46.6L41.4,45c-0.9-0.2-1.9-0.5-2.8-0.7
	c-0.7,0.5-1,1.2-1.5,1.8c-0.2,0.3-0.7,0.9-1.1,0.9c-0.2,0-0.4-0.1-0.5-0.2C35.4,46.6,35.4,46.4,35.4,46.2z"/>
<path class="st21" d="M66.7,48.4l0.5,0.1c0.3,0.1,0.5,0.1,0.7,0.3c-0.1,0-0.1,0-0.2,0l-0.1,0c-0.1,0.1-0.1,0-0.1,0.2l0,0.1
	c-0.3-0.2-0.6-0.2-1-0.3L66.7,48.4z"/>
<path class="st30" d="M29.6,77.8c-0.4-0.5-0.7-1-1-1.6c-1.1-2.5-1.4-5.2-1.4-7.9c0-2.9,0.2-5.7,0.3-8.6c0-0.9,0.1-1.9,0.1-2.8
	c0.1-1.5,0.1-3,0.2-4.6c0-1.5,0.1-2.9,0.1-4.4c0-0.7,0-1.4,0.1-2.2c0,0,0,0,0,0l0.1-3.7c0-0.8,0.1-1.7,0.3-2.5
	c0.2-0.1,0.4-0.1,0.6-0.1l-0.1,3l-0.3,7.5c0,0-0.2,14.9-0.2,14.9c0,1.1,0,2.2-0.1,3.2c0,1.2-0.1,2.4,0.1,3.7c0.2,1.4,0.7,2.7,1.3,4
	c-0.3-0.6-0.6-1.1-0.8-1.7c-0.2-0.6-0.4-1.2-0.5-1.8c-0.3-1.2-0.4-2.5-0.2-3.8c0,0,0,0,0,0c0-0.1,0-0.3,0-0.5c0-0.6,0-1.2,0-1.8
	c0-1.3,0-2.5,0-3.8c0-0.4-0.1-0.8-0.3-1.2c-0.1-0.3-0.3-0.6-0.7-0.6c0,2.9-0.3,5.8-0.2,8.8C27.5,72.4,28.1,75.4,29.6,77.8
	C29.7,77.9,29.7,77.8,29.6,77.8z"/>
<path class="st31" d="M39.1,73.5c-0.2-1-0.1-2.1-0.1-3.1l0-4.4l0-7.9l0-2.3c0-0.5,0-1.1,0.1-1.6c0.2-0.9,0.9-1.7,1.7-2.2
	c0.8-0.5,1.8-0.6,2.7-0.3c0.6,0.2,1.2,0.6,1.7,0.9l2.1,1.3l8.6,5.4c0.9,0.6,1.9,1.1,2.7,1.7c0.3,0.3,0.6,0.6,0.8,1
	c0.5,1,0.3,2,0,3.1c-0.3,0.5-0.7,0.9-1.1,1.2c-0.7,0.5-1.6,1-2.3,1.5l-6.4,3.9l-3.9,2.4c-0.6,0.4-1.3,0.8-1.9,1.2
	c-0.3,0.2-0.6,0.3-0.9,0.4c-0.8,0.2-1.8,0-2.5-0.5C39.8,74.7,39.4,74.1,39.1,73.5z"/>
<path class="st10" d="M42.3,53.1l0.4,0c0.3,0,0.5,0.2,0.7,0.3l4.2,2.7l5.7,3.6l2.7,1.7c0.6,0.4,1.4,0.7,1.8,1.3
	c0.3,0.3,0.3,0.9,0.2,1.3c-0.1,0.3-0.2,0.5-0.5,0.7c-0.5,0.4-1.2,0.7-1.8,1.1l-4.6,2.9c-0.3,0.3-0.8,0.5-1.2,0.7l-3.5,2.1L44.4,73
	c-0.4,0.3-0.8,0.6-1.2,0.8c-0.4,0.2-1,0.3-1.4,0.1c-0.4-0.2-0.8-0.6-1-1c-0.1-0.3-0.1-0.7-0.1-1l0-1.9l0-6.1l0-6l0-3
	c0-0.2,0.1-0.3,0.1-0.5C41.1,53.6,41.6,53.3,42.3,53.1z"/>
<path class="st2" d="M60.9,34.4c-0.1-0.4-0.3-0.7-0.4-1.1l-1-2.2l-1.9-4l-1.7-3.7l-2.1-4.7c-0.4-0.9-0.9-1.9-1.1-2.8l0.8,1.2
	l3.5,6.1l4.3,7.3l2.2,4c0.3,0.5,0.6,1,0.8,1.5c-0.8,0-1.5,0-2.3,0.3C61.7,35.7,61.4,35,60.9,34.4z"/>
<path class="st16" d="M39,32c0.1-0.8,0.7-1.8,1.1-2.6l1.2-2.4l4.6-9.6c1-2,2-4.1,2.9-6.2c0.3,0.9,0.8,1.8,1.2,2.6l2.6,5.1l3.9,8.1
	l1.9,3.9c0.3,0.7,0.7,1.4,0.9,2.1l-2-0.6l-1.6-0.3c-1.3-0.3-2.3-0.3-3.6,0.2c-0.2-0.4-0.4-0.8-0.7-1.1c-0.6-0.8-1.4-1.5-2.3-1.9
	c-0.6-0.2-1.2-0.3-1.8-0.5c-0.7-0.2-1.3-0.3-2-0.4c-0.4,0-0.8,0-1.2,0c-0.7,0.2-1.4,0.3-2,0.6c-0.8,0.5-1.6,1-2.2,1.8
	C39.5,31.3,39.2,31.7,39,32z"/>
<path class="st32" d="M42,29.2l6.8-14l2.8,5.7l3.7,7.7l1.3,2.8c0.2,0.4,0.5,0.8,0.6,1.2l-1.6-0.3l-6.7-13.8
	c-0.5,0.7-0.7,1.6-1.1,2.3L44,28.6C43.3,28.7,42.6,28.9,42,29.2z"/>
<path class="st2" d="M44,28.6l3.7-7.8c0.4-0.7,0.7-1.6,1.1-2.3l6.7,13.8c-1.3-0.3-2.3-0.3-3.6,0.2c-0.2-0.4-0.4-0.8-0.7-1.1
	c-0.6-0.8-1.4-1.5-2.3-1.9c-0.6-0.2-1.2-0.3-1.8-0.5c-0.7-0.2-1.3-0.3-2-0.4C44.8,28.5,44.4,28.6,44,28.6z"/>
</svg>
